<svg width="56.693" height="56.693" xmlns="http://www.w3.org/2000/svg">

 <g>
  <title>background</title>
  <rect fill="none" id="canvas_background" height="402" width="582" y="-1" x="-1"/>
 </g>
 <g>
  <title fill="#ffffff" stroke="#ffffff">Layer 1</title>
  <path fill="#ffffff" stroke="#ffffff" id="svg_2" d="m38.030998,27.257c-3.174,0 -3.614998,3.167999 -3.614998,3.167999l6.748001,0c0,0 0.042999,-3.167999 -3.133003,-3.167999z"/>
  <path fill="#ffffff" stroke="#ffffff" id="svg_3" d="m22.721001,30.424999l-5.982,0l0,5.492001l5.296,0c0.09,0 0.225,0.001999 0.382999,0c0.852001,-0.02 2.467001,-0.268002 2.467001,-2.669998c0,-2.851002 -2.164,-2.822002 -2.164,-2.822002z"/>
  <path fill="#ffffff" stroke="#ffffff" id="svg_4" d="m28.348,5.101c-13.599999,0 -24.625,11.023001 -24.625,24.623001c0,13.6 11.025,24.624998 24.625,24.624998c13.598,0 24.623001,-11.024998 24.623001,-24.624998c0,-13.599001 -11.026001,-24.623001 -24.623001,-24.623001zm5.182999,15.130001l8.477001,0l0,2.529999l-8.477001,0l0,-2.529999zm-4.284998,13.271997c0,6.271 -6.525,6.064003 -6.525,6.064003l-5.982,0l-0.175001,0l-4.534999,0l0,-20.546001l4.534999,0l0.175001,0l5.982,0c3.247999,0 5.812,1.794001 5.812,5.469999c0,3.676001 -3.135,3.91 -3.135,3.91c4.132999,0 3.848,5.101999 3.848,5.101999zm15.858,-0.335999l-10.646999,0c0,3.816002 3.614998,3.576 3.614998,3.576c3.414001,0 3.295002,-2.210999 3.295002,-2.210999l3.617001,0c0,5.866997 -7.033001,5.465 -7.033001,5.465c-8.436001,0 -7.893,-7.855003 -7.893,-7.855003s-0.008001,-7.892998 7.893,-7.892998c8.317001,0 7.153,8.917999 7.153,8.917999z"/>
  <path fill="#ffffff" stroke="#ffffff" id="svg_5" d="m24.174,24.809999c0,-2.136999 -1.452999,-2.136999 -1.452999,-2.136999l-0.77,0l-5.212,0l0,4.584l5.611,0c0.968,0 1.823999,-0.311001 1.823999,-2.447001z"/>
 </g>
</svg>