<svg width="32" height="32" xmlns="http://www.w3.org/2000/svg">

 <g>
  <title>background</title>
  <rect fill="none" id="canvas_background" height="402" width="582" y="-1" x="-1"/>
 </g>
 <g>
  <title fill="#ffffff" stroke="#ffffff">Layer 1</title>
  <path fill="#ffffff" stroke="#ffffff" id="svg_2" d="m15.2,11.3c-1.8,-3.4 -3.7,-6.6 -5.7,-9.8c-4.9,2.1 -8.5,6.7 -9.3,12.2c4.8,0.1 9.8,-0.7 15,-2.4z"/>
  <path fill="#ffffff" stroke="#ffffff" id="svg_3" d="m17.1,10.6c3.6,-1.400001 7.1,-3.2 10.699999,-5.400001c-3,-3.2 -7.099998,-5.2 -11.799999,-5.2c-1.6,0 -3.2,0.2 -4.6,0.7c2,3.2 3.900001,6.5 5.700001,9.9z"/>
  <path fill="#ffffff" stroke="#ffffff" id="svg_4" d="m19.9,16.5c2.9,-0.8 6,-1.3 9.1,-1.3c1,0 1.9,0 2.9,0.1c-0.1,-3.2 -1.199999,-6.2 -2.9,-8.6c-3.700001,2.400001 -7.4,4.3 -11,5.7c0.6,1.400001 1.299999,2.700001 1.9,4.1z"/>
  <path fill="#ffffff" stroke="#ffffff" id="svg_5" d="m18,17.1c-0.6,-1.400001 -1.299999,-2.700001 -2,-4.1c-5,1.7 -9.9,2.6 -14.6,2.6c-0.5,0 -0.9,0 -1.4,0c0,0.099999 0,0.2 0,0.4c0,4 1.5,7.6 3.9,10.4c4,-4.299999 8.8,-7.4 14.1,-9.299999z"/>
  <path fill="#ffffff" stroke="#ffffff" id="svg_6" d="m29.1,17.299999c-2.800001,0 -5.6,0.400002 -8.300001,1.1c1.6,3.5 2.900002,7.200001 4.200001,10.9c3.9,-2.599998 6.5,-6.9 7,-11.799999c-1,-0.200001 -2,-0.200001 -2.9,-0.200001z"/>
  <path fill="#ffffff" stroke="#ffffff" id="svg_7" d="m18.9,19c-5.099999,1.700001 -9.7,4.700001 -13.599999,8.9c2.8,2.5 6.599999,4.1 10.7,4.1c2.6,0 5,-0.6 7.200001,-1.700001c-1.300001,-3.9 -2.700001,-7.599998 -4.300001,-11.299999z"/>
 </g>
</svg>