<svg width="32" height="32" xmlns="http://www.w3.org/2000/svg">

 <g>
  <title>background</title>
  <rect fill="none" id="canvas_background" height="402" width="582" y="-1" x="-1"/>
 </g>
 <g>
  <title>Layer 1</title>
  <path id="svg_1" fill="#ffffff" d="m31.993,6.077c-1.177,0.523 -2.441,0.876 -3.77,1.033c1.355,-0.812 2.396,-2.098 2.887001,-3.63c-1.269001,0.751 -2.673,1.299 -4.168001,1.592c-1.198,-1.275 -2.903999,-2.072 -4.792999,-2.072c-3.625,0 -6.562,2.938 -6.562,6.563c0,0.514 0.057,1.016001 0.169,1.496c-5.455,-0.274 -10.290999,-2.887 -13.529,-6.858c-0.564,0.97 -0.888,2.097 -0.888,3.3c0,2.278 1.159,4.286 2.919,5.464c-1.075,-0.035 -2.087,-0.329 -2.972,-0.821c-0.001,0.026999 -0.001,0.056 -0.001,0.082c0,3.181 2.262,5.834 5.265,6.437c-0.55,0.149 -1.13,0.23 -1.729,0.23c-0.424,0 -0.834,-0.041 -1.234,-0.117001c0.834,2.606001 3.259,4.504002 6.13,4.558001c-2.245,1.76 -5.075,2.811001 -8.15,2.811001c-0.53,0 -1.053,-0.031 -1.566,-0.092001c2.904,1.860001 6.354,2.947001 10.061,2.947001c12.072001,0 18.674999,-10.000999 18.674999,-18.675c0,-0.283999 -0.007999,-0.568 -0.02,-0.849999c1.283001,-0.925 2.395,-2.08 3.276001,-3.398z"/>
 </g>
</svg>